<?xml version="1.0" standalone="no"?>
<!DOCTYPE svg PUBLIC "-//W3C//DTD SVG 1.1//EN" "http://www.w3.org/Graphics/SVG/1.1/DTD/svg11.dtd" >
<svg xmlns="http://www.w3.org/2000/svg">
<metadata>Generated by IcoMoon</metadata>
<defs>
<font id="font" horiz-adv-x="1024">
<font-face units-per-em="1024" ascent="960" descent="-64" />
<missing-glyph horiz-adv-x="1024" />
<glyph unicode="&#x20;" horiz-adv-x="512" d="" />
<glyph unicode="&#xe900;" glyph-name="add_circle" d="M726 406v84h-172v172h-84v-172h-172v-84h172v-172h84v172h172zM512 874q176 0 301-125t125-301-125-301-301-125-301 125-125 301 125 301 301 125z" />
<glyph unicode="&#xe901;" glyph-name="arrow_lift" d="M246.784 491.691l443.051 442.709c24.917 24.917 62.464 24.917 87.381 0s24.917-62.464 0-87.381l-399.36-399.36 399.36-399.36c24.917-24.917 24.917-62.464 0-87.381s-62.464-24.917-87.381 0l-443.051 443.392c-24.917 24.917-24.917 62.464 0 87.381z" />
<glyph unicode="&#xe902;" glyph-name="check_circle" d="M426 234l384 384-60 62-324-324-152 152-60-60zM512 874q176 0 301-125t125-301-125-301-301-125-301 125-125 301 125 301 301 125z" />
<glyph unicode="&#xe903;" glyph-name="close" d="M810 686l-238-238 238-238-60-60-238 238-238-238-60 60 238 238-238 238 60 60 238-238 238 238z" />
<glyph unicode="&#xe904;" glyph-name="favorite" d="M512 50l-62 56c-220 200-364 330-364 492 0 132 102 234 234 234 74 0 146-36 192-90 46 54 118 90 192 90 132 0 234-102 234-234 0-162-144-294-364-494z" />
<glyph unicode="&#xe905;" glyph-name="keyboard_arrow_right" d="M366 262l196 196-196 196 60 60 256-256-256-256z" />
<glyph unicode="&#xe906;" glyph-name="remove_circle_outline" d="M512 106q140 0 241 101t101 241-101 241-241 101-241-101-101-241 101-241 241-101zM512 874q176 0 301-125t125-301-125-301-301-125-301 125-125 301 125 301 301 125zM298 490h428v-84h-428v84z" />
<glyph unicode="&#xe907;" glyph-name="bar" d="M290.15 456.123l-149.461 2.114v-333.16h149.461zM497.316 732.934l-149.462 3.883v-611.74h149.462zM704.481 591.532l-149.461 2.98v-469.435h149.461zM911.647 321.995l-149.462 1.258v-198.176h149.462zM102.139 74.635v787.213h-37.076v-830.142h895.855v42.929z" />
<glyph unicode="&#xe908;" glyph-name="thumb_down" d="M810 832h172v-512h-172v512zM640 832q34 0 60-26t26-60v-426q0-34-26-60l-280-282-46 46q-18 18-18 44v14l42 196h-270q-34 0-60 25t-26 59l2 4h-2v82q0 16 6 32l130 300q20 52 78 52h384z" />
<glyph unicode="&#xe909;" glyph-name="thumb_up" d="M982 534l-2-4h2v-82q0-16-6-32l-130-300q-20-52-78-52h-384q-34 0-60 26t-26 60v426q0 34 26 60l280 282 46-46q18-18 18-44v-14l-42-196h270q34 0 60-25t26-59zM42 64v512h172v-512h-172z" />
<glyph unicode="&#xe90a;" glyph-name="boxplot" d="M101.085 74.609v785.341h-37.073v-828.169h895.769v42.828zM206.022 212.184h-25.872v-10.707h25.872v-0.324h9.268v0.324h25.872v10.707h-25.872v48.942h79.358v201.968l-79.358 0.612v50.401h25.872v10.707h-61.012v-10.707h25.872v-50.329l-79.358 0.612v-203.264h79.358v-48.942zM145.2 442.833l130.911-1.011v-159.282h-130.911v160.293zM415.013 503.772h-25.872v-10.707h25.872v-0.324h9.268v0.324h25.872v10.707h-25.872v49.267h79.358v137.831l-79.358 0.395v50.183h25.872v10.707h-61.012v-10.707h25.872v-50.137l-79.358 0.395v-138.667h79.358v-49.267zM354.191 670.201l130.911-0.652v-95.096h-130.911v95.748zM622.159 209.186h9.268v-10.511h79.357v329.716l-79.357 1.046v-15.33h-9.268v15.452l-79.358 1.046v-331.929h79.358v10.51zM552.069 313.179h9.268v195.766l130.911-1.726v-194.041h9.268v-21.414h-9.268v-71.676h-130.911v71.676h-9.268v21.415zM631.427 514.107v87.456h25.871v10.707h-61.012v-10.707h25.873v-87.456zM622.159 209.186v-59.452h-25.873v-10.707h25.873v-0.324h9.268v0.324h25.871v10.707h-25.871v59.452zM824.67 523.326h9.268v-6.051h79.358v102.967l-79.358 0.277v-11.199h-9.268v11.232l-79.357 0.277v-103.552h79.357v6.049zM763.849 599.349l130.911-0.456v-60.203h-130.911v60.659zM833.938 609.32v61.264h25.872v10.707h-61.012v-10.707h25.872v-61.264zM824.67 523.326v-154.665h-25.872v-10.707h25.872v-0.324h9.268v0.324h25.872v10.707h-25.872v154.665zM692.248 291.765h9.268v21.414h-149.447v-21.414h9.268z" />
<glyph unicode="&#xe90b;" glyph-name="candlestick" d="M102.333 74.707v787.141h-37v-830.067h894.007v42.926zM208.913 202.508h9.25v69.875h69.952v181.039l-69.952 0.542v70.488h-9.25v-70.416l-69.951 0.542v-182.195h69.951zM417.493 394.148h9.25v132.925h69.952v112.332l-69.952 0.337v43.658h-9.25v-43.614l-69.952 0.337v-113.050h69.952zM621.456 139.956h9.25v183.346h72.727v269.513l-72.727 0.839v54.686h-9.25v-54.579l-67.176 0.775v-271.234h67.176zM830.97 107.759h9.25v64.819h69.951v127.755l-69.951 0.382v153.863h-9.25v-153.812l-69.952 0.383v-128.571h69.952z" />
<glyph unicode="&#xe90c;" glyph-name="column" d="M559.693 797.311h-426.322v-173.064h423.616zM916.172 544.055h-782.801v-173.064h777.833zM734.074 290.799h-600.703v-173.064h596.891zM101.666 74.637v787.238h-36.952v-830.169h892.854v42.931z" />
<glyph unicode="&#xe90d;" glyph-name="funnel" d="M220.987 327.382h582.726l89.639 198.67h-763.916zM326.066 64.361h372.577l51.844 154.375h-478.185zM63.754 832.010l33.355-195.299h830.441l31.484 195.299z" />
<glyph unicode="&#xe90e;" glyph-name="funnel1" d="M898.764 700.854h-737.305l88.361-126.571h562.427zM931.771 771.354l30.388 124.423h-864.095l32.193-124.423zM810.402 323.032h-562.427l-86.516-126.571h737.305zM760.876 392.25l-29.22 55.382 29.219 57.433h-461.527l29.219-55.382-29.219-57.433zM128.453 125.961l-30.389-124.424h864.095l-32.193 124.424z" />
<glyph unicode="&#xe90f;" glyph-name="gauge" d="M444.536 341.556l74.316-65.84 61.025 65.84-64.994 427.641h-1.248zM512.207 896.132c-247.516 0-448.167-200.651-448.167-448.167 0-116.262 44.273-222.182 116.876-301.827l63.794 40.923c-61.26 62.797-100.586 147.086-105.615 240.49h57.454v36.585h-57.658c8.21 192.797 162.505 347.77 355.024 357.050v-51.99h36.585v51.99c192.518-9.281 346.813-164.253 355.023-357.050h-57.819v-36.585h57.615c-4.974-92.381-43.497-175.845-103.61-238.419l61.789-42.994c72.603 79.645 116.876 185.565 116.876 301.827-0.001 247.516-200.652 448.167-448.167 448.167z" />
<glyph unicode="&#xe910;" glyph-name="graph" d="M825.137 78.717c4.311-0.78 8.163-2.163 11.683-4.079l25.242 73.092c-4.521 0.459-8.627 1.251-12.594 2.373l-24.331-71.386zM144.948 297.977c-1.596-4.017-3.668-7.483-6.202-10.553l74.737-40.359c1.679 4.229 3.488 7.815 5.569 11.217l-74.104 39.695zM653.938 816.137l59.891-11.9c0.877 4.347 2.361 8.209 4.382 11.724l-64.188 12.546c0.142-1.859 0.237-3.731 0.237-5.627 0-2.275-0.118-4.521-0.322-6.743zM595.335 621.336v130c-4.199-0.858-9.027-1.351-13.969-1.353-3.649 0.004-7.23 0.274-10.73 0.79l0.4-129.161c3.416 0.22 6.857 0.343 10.328 0.343 4.709 0 9.366-0.217 13.971-0.619zM327.828 276.356c6.23-5.2 11.499-11.283 15.682-18.104l114.622 105.015c-4.844 5.918-9.454 12.509-13.554 19.439l-116.75-106.35zM820.193 274.133l-101.239 109.99c-4.54-7.813-9.203-14.527-14.34-20.839l100.435-108.579c4.087 7.518 9.136 13.933 15.088 19.378zM740.062 463.256c0 82.938-63.626 151.004-144.728 158.080-4.181 0.391-9.047 0.615-13.965 0.619-3.477 0-6.918-0.124-10.334-0.343-82.832-5.323-148.371-74.179-148.371-158.355 0-29.099 7.839-56.364 21.509-79.811 4.504-7.669 9.114-14.26 14.184-20.463 28.872-35.532 73.262-58.425 123.006-58.425 49.885 0 94.386 23.024 123.479 59.017 4.908 6.022 9.571 12.736 13.705 19.797 13.833 24.045 21.515 51.067 21.515 79.884zM327.828 276.356c-12.628 10.493-28.853 16.808-46.556 16.808-26.463 0-49.63-14.102-62.402-35.2-1.899-3.083-3.708-6.67-5.214-10.41-3.405-8.416-5.281-17.615-5.281-27.251 0-0.013 0-0.025 0-0.038 0-40.258 32.637-72.895 72.897-72.895s72.897 32.637 72.897 72.897c0 13.784-3.829 26.673-10.477 37.666-4.365 7.14-9.634 13.223-15.748 18.328zM869.306 293.164c-18.921 0-36.156-7.211-49.113-19.031-6.007-5.495-11.057-11.91-14.953-19.044-5.7-10.64-8.831-22.364-8.831-34.821 0-33.566 22.694-61.815 53.57-70.287 3.456-0.998 7.561-1.791 11.773-2.223 2.692-0.261 5.108-0.386 7.553-0.386 40.26 0 72.897 32.637 72.897 72.897 0 40.258-32.637 72.895-72.896 72.895zM595.335 751.336c31.421 6.101 55.627 32.373 58.603 64.801 0.204 2.222 0.322 4.468 0.322 6.743 0 1.896-0.095 3.768-0.237 5.627-2.876 37.627-34.295 67.27-72.659 67.27-40.26 0-72.897-32.637-72.897-72.897 0-36.752 27.203-67.137 62.569-72.155 3.1-0.468 6.681-0.738 10.323-0.742 4.785 0 9.453 0.474 13.976 1.353zM713.085 796.659c0-21.472 17.406-38.878 38.878-38.878s38.878 17.406 38.878 38.878-17.406 38.878-38.878 38.878c-14.522 0-27.176-7.968-33.851-19.765-1.922-3.327-3.406-7.189-4.241-11.288-0.515-2.526-0.785-5.144-0.786-7.825zM147.628 312.159c0 21.472-17.407 38.878-38.878 38.878-21.472 0-38.878-17.406-38.878-38.878s17.406-38.878 38.878-38.878c12.106 0 22.918 5.534 30.049 14.21 2.482 3.004 4.554 6.47 6.057 10.225 1.788 4.459 2.772 9.327 2.772 14.425 0 0.006 0 0.013 0 0.019zM818.279 79.332c-21.472 0-38.878-17.406-38.878-38.878s17.406-38.878 38.878-38.878 38.878 17.406 38.878 38.878c0 14.84-8.317 27.733-20.541 34.285-3.317 1.814-7.169 3.198-11.243 3.942-2.297 0.424-4.668 0.648-7.091 0.651z" />
<glyph unicode="&#xe911;" glyph-name="heatmap" d="M772.985 296.399l89.212-52.711 3.343 392.523-87.48-49.619 81.085-117.214zM500.006 725.945v117.711l-140.993-79.809 106.043-53.085zM344.293 755.514l-177.908-100.704 71.979-42.53 44.123 19.169zM857.123 649.492l-206.805 121.759 118.771-171.692zM158.013 558.616l-1.533-180.109 45.767 91.873zM515.712 850.502v-117.734l115.064 49.988zM515.712 40.321l158.87 89.929h-158.87zM163.164 237.816l160.575-94.54-101.571 128.008zM155.398 251.466l56.89 32.269-56.014 70.593zM158.716 641.1l-0.542-63.657 62.399 27.108zM345.863 130.25l38.159-22.466-11.263 22.466zM500.006 39.497v88.701l-99.301-30.236zM723.029 196.106l-24.802-7.552-6.415-48.551 160.874 91.064-86.721 51.239zM852.686 231.067l-160.874-91.064-1.289-9.753h-15.941l-158.87-89.929v-18.047l352.574 199.576zM865.54 636.211l-3.343-392.523 15.628-9.234 3.497 410.709zM515.712 850.502l115.064-67.746 8.906 3.869 10.636-15.374 206.805-121.759 15.766 8.943-357.177 210.292zM155.398 251.466l0.876 102.862-7.274 9.166 7.48 15.013 1.533 180.109-7.721 15.403 7.882 3.424 0.542 63.657-15.628 9.234-3.472-407.82zM166.385 654.81l177.908 100.704 6.26 12.568 8.46-4.235 140.993 79.809v18.048l-349.22-197.678zM500.006 39.497l-99.301 58.465-10.202-3.107-6.481 12.929-38.159 22.466h-11.788l-10.336 13.026-160.575 94.54-15.766-8.943 352.608-207.601zM515.712 40.321v89.929h-8.965l-6.741-2.052v-129.979h15.706v24.055zM500.006 843.656v-117.711l15.706 6.823v163.009h-15.706v-34.073zM862.197 243.688l-89.212 52.711-7.020-14.093 124.31-73.449 8.135 13.434-20.585 12.163zM158.716 641.1l61.857-36.549 17.791 7.729-111.349 65.792-8.136-13.434 24.209-14.304zM857.123 649.492l-88.034-49.933 8.971-12.967 119.124 67.568-7.631 13.727-16.664-9.452zM163.164 237.816l59.004 33.468-9.88 12.451-93.708-53.152 7.631-13.727 21.187 12.017zM372.759 130.25l17.744-35.395 116.244 35.395zM748.478 568.883l-50.251-380.329 24.802 7.552 136.116 273.272-219.463 317.247-174.626-75.863zM282.487 631.449l-132.195-57.43 51.955-103.639zM748.478 568.883l-397.925 199.199-201.553-404.588 185.075-233.244h356.448l1.289 9.753 6.415 48.551z" />
<glyph unicode="&#xe912;" glyph-name="line" d="M959.159 31.781h-895.096v830.094h37.045v-787.166h858.051zM580.658 163.755l-210.972 168.076-211.044-132.616-17.659 37.737 230.991 145.15 208.508-166.113 334.054 270.609 21.225-35.183zM152.112 358.247l-28.68 27.17 236.798 335.639 208.773-255.976 334.517 391.237 26.316-30.213-361.462-422.75-206.129 252.736z" />
<glyph unicode="&#xe913;" glyph-name="line1" d="M928.024 451.405l-351.13-254.683-213.914 158.576-214.094-129.275v155.184l225.317 312.316 203.747-253.287 350.074 395.34zM918.762 125.147h-779.137v101.522l225.317 108.398 203.747-145.961 350.073 279.044zM959.159 31.781h-895.096v830.094h37.045v-787.166h858.051zM580.658 163.755l-210.972 168.076-211.044-132.616-17.659 37.737 230.991 145.15 208.508-166.113 334.054 270.609 21.225-35.183zM152.112 358.247l-28.68 27.17 236.798 335.639 208.773-255.976 334.517 391.237 26.316-30.213-361.462-422.75-206.129 252.736z" />
<glyph unicode="&#xe914;" glyph-name="lineStack" d="M529.972 405.068l195.11 161.284 192.231-141.279v182.836l-193.856 89.278-197.687-137.787-163.704 93.148-221.387-168.16-0.683-124.15 194.865 94.185zM920.193 422.956l-195.111 143.396-195.11-161.284-195.111 49.355-195.11-94.304v-234.077h780.442zM101.17 75.66v786.28h-37.107v-829.159h896.594v42.879z" />
<glyph unicode="&#xe915;" glyph-name="map" d="M854.445 603.116c-4.39-9.779-9.241-19.824-14.472-30.048l84.737-41.39v-474.522l-181.908 92.905v-6.178h-35.873v3.185l-194.989-99.586-192.225 76.217v-1.904h-35.873v4.826l-182.663-72.425v473.208l182.663 102.099v17.337h35.873v-31.513l190.564-165.289 22.458 11.766c-2.65 3.63-9.175 13.755-15.594 23.954l-216.673 191.415-235.164-131.445v-541.435l232.787 92.299 215.856-85.585 213.846 109.217 232.787-118.891v549.939l-106.137 51.844zM319.715 646.84h-35.873v-525.045h35.873v493.532zM706.929 631.412c12.474 9.77 21.844 22.74 26.584 37.516h-26.584v-37.516zM706.929 364.184v-220.301h35.873v270.885c-17.056-24.87-28.85-41.343-40.834-57.667zM653.56 293.428s22.539 28.368 53.369 70.756c7.029 9.25 18.823 25.723 30.423 42.341 39.15 57.054 75.793 114.101 102.621 166.543 5.23 10.224 10.082 20.269 14.472 30.048 15.251 33.974 24.865 64.69 24.865 88.151 0 113.722-101.072 205.912-225.75 205.912s-225.75-92.19-225.75-205.912c0-47.469 39.334-124.624 85.164-198.414 10.588-17.294 17.113-27.419 23.741-37.471 54.98-84.095 116.845-161.954 116.845-161.954zM650.869 769.556c47.554 0 86.103-35.162 86.103-78.537 0-0.005 0-0.012 0-0.018 0-7.887-1.265-15.479-3.604-22.583-4.595-14.266-13.965-27.237-26.439-37.006-15.064-11.798-34.648-18.929-56.060-18.929-47.553 0-86.103 35.162-86.103 78.537 0 43.374 38.549 78.536 86.103 78.536z" />
<glyph unicode="&#xe916;" glyph-name="pie" d="M65.946 449.465c0-246.687 199.98-446.667 446.667-446.667s446.667 199.98 446.667 446.667c0 246.687-199.98 446.667-446.667 446.667s-446.667-199.98-446.667-446.667zM512.613 896.132c-246.687 0-446.667-199.979-446.667-446.667h446.667v446.667zM511.802 449.465l392.158 212.339c-75.291 139.078-222.241 233.681-391.347 234.317l-0.811-446.656z" />
<glyph unicode="&#xe917;" glyph-name="pie1" d="M485.179 847.34c-233.873 0-423.464-189.591-423.464-423.464s189.591-423.464 423.464-423.464 423.464 189.591 423.464 423.464-189.591 423.464-423.464 423.464zM485.179 134.677c-159.72 0-289.199 129.479-289.199 289.199s129.479 289.199 289.199 289.199 289.199-129.479 289.199-289.199-129.479-289.199-289.199-289.199zM711.686 423.875h248.512c-0.148 261.822-212.44 474.024-474.296 474.024v-248.51c124.608 0 225.636-100.941 225.784-225.514z" />
<glyph unicode="&#xe918;" glyph-name="radar" d="M501.225 897.317l-390.174-220.859-3.818-448.329 386.357-227.471 390.173 220.858 3.818 448.329-386.356 227.472zM712.36 228.998c-36.304-41.536-127.042-46.838-127.042-46.838s-28.307 2.897-56.972 19.879c-53.418-20.446-107.435-24.042-107.435-24.042s-153.353 17.817-171.391 185.297c-18.038 167.479 162.338 323.404 162.338 323.404s71.632 103.687 255.552-54.978c72.11-62.208 87.206-122.317 75.654-176.662 3.762-2.706 6.246-4.56 8.71-6.439 122.313-92.666-3.109-178.085-39.414-219.621zM470.332 291.302c-12.102 98.648 108.913 190.489 108.913 190.489s46.074 58.543 163.819-26.733c11.551 54.345-3.545 114.454-75.654 176.662-183.921 158.665-255.551 54.978-255.551 54.978s-180.376-155.925-162.338-323.404c18.038-167.48 171.391-185.297 171.391-185.297s54.017 3.596 107.435 24.042c-25.983 15.393-52.261 42.359-58.015 89.263zM750.694 449.409c-1.394 1.097-3.878 2.951-6.381 4.78-118.995 86.145-165.068 27.602-165.068 27.602s-121.014-91.841-108.913-190.489c5.754-46.904 32.031-73.87 58.014-89.263 28.665-16.982 56.972-19.879 56.972-19.879s90.738 5.302 127.042 46.838c36.305 41.536 161.727 126.955 38.334 220.411z" />
<glyph unicode="&#xe919;" glyph-name="scatter" d="M102.144 130.653v690.449h-36.948v-728.102h892.761v37.653zM145.123 347.399c0-45.724 36.373-82.791 81.241-82.791s81.241 37.067 81.241 82.791c0 45.724-36.373 82.791-81.241 82.791s-81.241-37.067-81.241-82.791zM496.785 571.948c0-31.922 25.393-57.799 56.717-57.799s56.717 25.877 56.717 57.799c0 31.922-25.393 57.799-56.717 57.799s-56.717-25.877-56.717-57.799zM737.424 300.593c0-36.169 28.772-65.49 64.265-65.49s64.265 29.321 64.265 65.49c0 36.169-28.772 65.49-64.265 65.49s-64.265-29.321-64.265-65.49zM124.725 199.008c0-19.012 15.124-34.425 33.781-34.425s33.781 15.413 33.781 34.425c0 19.012-15.124 34.425-33.781 34.425s-33.781-15.413-33.781-34.425zM879.080 467.483c0-9.53 7.581-17.256 16.933-17.256s16.933 7.726 16.933 17.256c0 9.53-7.581 17.256-16.933 17.256s-16.933-7.726-16.933-17.256zM762.198 492.91c0-10.931 8.695-19.792 19.421-19.792s19.421 8.861 19.421 19.792c0 10.931-8.695 19.792-19.421 19.792s-19.421-8.861-19.421-19.792zM337.483 645.26c0-14.090 11.209-25.513 25.036-25.513s25.036 11.423 25.036 25.513c0 14.090-11.209 25.513-25.036 25.513s-25.036-11.423-25.036-25.513zM611.021 419.25c0-13.087 10.41-23.696 23.252-23.696s23.252 10.609 23.252 23.696c0 13.087-10.41 23.696-23.252 23.696s-23.252-10.609-23.252-23.696zM396.030 420.354c0-12.639 10.054-22.885 22.456-22.885s22.456 10.246 22.456 22.885c0 12.639-10.054 22.885-22.456 22.885s-22.456-10.246-22.456-22.885zM314.482 532.581c0-10.139 8.065-18.358 18.014-18.358s18.014 8.219 18.014 18.358c0 10.139-8.065 18.358-18.014 18.358s-18.014-8.219-18.014-18.358zM503.88 316.203c0-9.53 7.581-17.256 16.933-17.256s16.933 7.726 16.933 17.256c0 9.53-7.581 17.256-16.933 17.256s-16.933-7.726-16.933-17.256z" />
<glyph unicode="&#xe91a;" glyph-name="themeRiver" d="M427.434 546.63c70.905-70.67 120.955 85.125 216.885 86.731s162.879-88.071 191.86-105.111c28.981-17.040 95.93-52.29 95.93-52.29v-11.076l0.086-0.012-0.086 31.968s-192.49 223.815-288.42 221.647c-95.93-2.168-144.78-191.961-215.684-96.585-137.639 186.416-282.229-51.18-282.229-51.18v-19.583c9.93 8.873 149.018 128.601 281.658-4.509zM932.109 316.952s-21.445-15.488-47.553-39.231c25.92 12.173 48.124 8.197 48.124 8.197l-0.142 52.606-0.429-0.143v-21.429zM527.534 267.162c-67.83 120.183-153.477-98.328-354.302-14.865 156.418-274.153 287.854 152.695 354.872-7.564 79.246-195.087 260.636-128.039 296.783-36.998 2.228 5.641 4.17 9.949 6.267 14.167-9.532-12.606-17.702-24.577-24.173-36.653-36.146-67.458-200.2-62.64-279.447 81.913zM527.534 267.162c79.246-144.552 243.301-149.371 279.448-81.913 6.471 12.077 14.641 24.048 23.685 35.568 16.675 21.241 36.332 40.938 53.888 56.904 26.108 23.743 47.553 39.231 47.553 39.231v21.429c-13.765-4.622-90.15-31.535-122.976-70.134-36.148-42.506-200.202-39.47-279.448 51.615-70.905 79.162-161.273-103.229-382.329-29.35v239.856s144.59 52.626 282.229-34.41c70.905-44.53 120.955 53.639 216.885 54.651s162.879-55.495 191.86-66.232c25.9-9.595 82.117-17.847 93.779-19.493v11.076s-66.949 35.251-95.93 52.29c-28.981 17.040-95.93 106.717-191.86 105.111s-145.98-157.402-216.885-86.731c-132.639 133.11-271.728 13.383-281.658 4.509-0.374-0.335-0.571-0.517-0.571-0.517v-285.066c9.587-5.085 18.923-9.475 28.028-13.259 200.825-83.463 286.473 135.048 354.302 14.865zM101.14 76.389v785.429h-37.077v-828.262h895.854v42.833zM838.329 484.377c-28.981 10.737-95.93 67.244-191.86 66.232s-145.98-99.181-216.885-54.651c-137.639 87.036-282.229 34.41-282.229 34.41v-239.856c221.056-73.88 311.425 108.512 382.329 29.35 79.246-91.084 243.301-94.121 279.448-51.615 32.826 38.599 109.211 65.513 122.976 70.134l0.429 0.143c1.115 0.372 1.722 0.566 1.722 0.566v125.494s-0.734 0.099-2.064 0.287l-0.086 0.012c-11.663 1.647-67.88 9.898-93.78 19.494z" />
<glyph unicode="&#xe91b;" glyph-name="treemap" d="M888.6 192.289v305.427h-54.177v-0.902h-295.943v167.708c-8.108-2.187-17.416-3.444-27.019-3.444-0.025 0-0.050 0-0.074 0-9.353 0-18.43 1.198-27.085 3.444v-167.708h-299.554v0.902h-54.177v-306.192c7.83 2.397 16.831 3.777 26.154 3.777 0.022 0 0.044 0 0.066 0 9.744 0 19.137-1.513 27.959-4.31v251.646h299.555v-251.373c8.082 2.561 17.377 4.037 27.016 4.037 0.026 0 0.051 0 0.077 0 0.017 0 0.042 0 0.067 0 9.64 0 18.935-1.476 27.673-4.214l-0.655 251.55h295.943v-252.564c9.119 3.313 19.645 5.228 30.618 5.228 0.029 0 0.057 0 0.086 0 8.106 0 15.974-1.049 23.471-3.012zM538.48 664.522c46.271 12.009 80.438 54.055 80.438 104.083 0 59.385-48.141 107.526-107.526 107.526s-107.526-48.141-107.526-107.526c0-50.028 34.166-92.074 80.438-104.083 8.108-2.187 17.416-3.444 27.019-3.444 0.025 0 0.050 0 0.074 0 9.351 0 18.428 1.197 27.083 3.444zM130.571 191.523c-38.278-11.302-66.216-46.713-66.216-88.654 0-51.049 41.383-92.431 92.431-92.431s92.431 41.383 92.431 92.431c0 41.301-27.090 76.271-64.469 88.121-8.334 2.734-17.926 4.31-27.886 4.31-0.027 0-0.053 0-0.080 0-0.015 0-0.039 0-0.062 0-9.321 0-18.32-1.38-26.803-3.947zM484.303 191.264c-37.83-11.579-65.343-46.772-65.343-88.394 0-51.049 41.383-92.431 92.431-92.431s92.431 41.383 92.431 92.431c0 41.622-27.513 76.815-65.343 88.394-8.082 2.561-17.377 4.037-27.017 4.037-0.025 0-0.051 0-0.076 0-0.017 0-0.042 0-0.067 0-9.639 0-18.934-1.476-27.67-4.214zM888.6 192.289c-7.027 1.913-15.096 3.012-23.422 3.012-0.019 0-0.039 0-0.058 0-0.021 0-0.050 0-0.079 0-10.973 0-21.499-1.915-31.261-5.43-35.313-12.457-61.088-46.716-61.088-87.001 0-51.049 41.383-92.431 92.431-92.431s92.431 41.383 92.431 92.431c0 42.935-29.276 79.030-68.954 89.419z" />
<glyph unicode="&#xe95c;" glyph-name="bar_1" d="M290.15 456.123l-149.461 2.114v-333.16h149.461zM497.316 732.934l-149.462 3.883v-611.74h149.462zM704.481 591.532l-149.461 2.98v-469.435h149.461zM911.647 321.995l-149.462 1.258v-198.176h149.462zM102.139 74.635v787.213h-37.076v-830.142h895.855v42.929z" />
<glyph unicode="&#xe95d;" glyph-name="boxplot_1" d="M101.085 74.609v785.341h-37.073v-828.169h895.769v42.828zM206.022 212.184h-25.872v-10.707h25.872v-0.324h9.268v0.324h25.872v10.707h-25.872v48.942h79.358v201.968l-79.358 0.612v50.401h25.872v10.707h-61.012v-10.707h25.872v-50.329l-79.358 0.612v-203.264h79.358v-48.942zM145.2 442.833l130.911-1.011v-159.282h-130.911v160.293zM415.013 503.772h-25.872v-10.707h25.872v-0.324h9.268v0.324h25.872v10.707h-25.872v49.267h79.358v137.831l-79.358 0.395v50.183h25.872v10.707h-61.012v-10.707h25.872v-50.137l-79.358 0.395v-138.667h79.358v-49.267zM354.191 670.201l130.911-0.652v-95.096h-130.911v95.748zM622.159 209.186h9.268v-10.511h79.357v329.716l-79.357 1.046v-15.33h-9.268v15.452l-79.358 1.046v-331.929h79.358v10.51zM552.069 313.179h9.268v195.766l130.911-1.726v-194.041h9.268v-21.414h-9.268v-71.676h-130.911v71.676h-9.268v21.415zM631.427 514.107v87.456h25.871v10.707h-61.012v-10.707h25.873v-87.456zM622.159 209.186v-59.452h-25.873v-10.707h25.873v-0.324h9.268v0.324h25.871v10.707h-25.871v59.452zM824.67 523.326h9.268v-6.051h79.358v102.967l-79.358 0.277v-11.199h-9.268v11.232l-79.357 0.277v-103.552h79.357v6.049zM763.849 599.349l130.911-0.456v-60.203h-130.911v60.659zM833.938 609.32v61.264h25.872v10.707h-61.012v-10.707h25.872v-61.264zM824.67 523.326v-154.665h-25.872v-10.707h25.872v-0.324h9.268v0.324h25.872v10.707h-25.872v154.665zM692.248 291.765h9.268v21.414h-149.447v-21.414h9.268z" />
<glyph unicode="&#xe95e;" glyph-name="candlestick_1" d="M102.333 74.707v787.141h-37v-830.067h894.007v42.926zM208.913 202.508h9.25v69.875h69.952v181.039l-69.952 0.542v70.488h-9.25v-70.416l-69.951 0.542v-182.195h69.951zM417.493 394.148h9.25v132.925h69.952v112.332l-69.952 0.337v43.658h-9.25v-43.614l-69.952 0.337v-113.050h69.952zM621.456 139.956h9.25v183.346h72.727v269.513l-72.727 0.839v54.686h-9.25v-54.579l-67.176 0.775v-271.234h67.176zM830.97 107.759h9.25v64.819h69.951v127.755l-69.951 0.382v153.863h-9.25v-153.812l-69.952 0.383v-128.571h69.952z" />
<glyph unicode="&#xe95f;" glyph-name="column_1" d="M559.693 797.311h-426.322v-173.064h423.616zM916.172 544.055h-782.801v-173.064h777.833zM734.074 290.799h-600.703v-173.064h596.891zM101.666 74.637v787.238h-36.952v-830.169h892.854v42.931z" />
<glyph unicode="&#xe960;" glyph-name="funnel_1" d="M220.987 327.382h582.726l89.639 198.67h-763.916zM326.066 64.361h372.577l51.844 154.375h-478.185zM63.754 832.010l33.355-195.299h830.441l31.484 195.299z" />
<glyph unicode="&#xe961;" glyph-name="funnel1_1" d="M898.764 700.854h-737.305l88.361-126.571h562.427zM931.771 771.354l30.388 124.423h-864.095l32.193-124.423zM810.402 323.032h-562.427l-86.516-126.571h737.305zM760.876 392.25l-29.22 55.382 29.219 57.433h-461.527l29.219-55.382-29.219-57.433zM128.453 125.961l-30.389-124.424h864.095l-32.193 124.424z" />
<glyph unicode="&#xe962;" glyph-name="gauge_1" d="M444.536 341.556l74.316-65.84 61.025 65.84-64.994 427.641h-1.248zM512.207 896.132c-247.516 0-448.167-200.651-448.167-448.167 0-116.262 44.273-222.182 116.876-301.827l63.794 40.923c-61.26 62.797-100.586 147.086-105.615 240.49h57.454v36.585h-57.658c8.21 192.797 162.505 347.77 355.024 357.050v-51.99h36.585v51.99c192.518-9.281 346.813-164.253 355.023-357.050h-57.819v-36.585h57.615c-4.974-92.381-43.497-175.845-103.61-238.419l61.789-42.994c72.603 79.645 116.876 185.565 116.876 301.827-0.001 247.516-200.652 448.167-448.167 448.167z" />
<glyph unicode="&#xe963;" glyph-name="graph_1" d="M825.137 78.717c4.311-0.78 8.163-2.163 11.683-4.079l25.242 73.092c-4.521 0.459-8.627 1.251-12.594 2.373l-24.331-71.386zM144.948 297.977c-1.596-4.017-3.668-7.483-6.202-10.553l74.737-40.359c1.679 4.229 3.488 7.815 5.569 11.217l-74.104 39.695zM653.938 816.137l59.891-11.9c0.877 4.347 2.361 8.209 4.382 11.724l-64.188 12.546c0.142-1.859 0.237-3.731 0.237-5.627 0-2.275-0.118-4.521-0.322-6.743zM595.335 621.336v130c-4.199-0.858-9.027-1.351-13.969-1.353-3.649 0.004-7.23 0.274-10.73 0.79l0.4-129.161c3.416 0.22 6.857 0.343 10.328 0.343 4.709 0 9.366-0.217 13.971-0.619zM327.828 276.356c6.23-5.2 11.499-11.283 15.682-18.104l114.622 105.015c-4.844 5.918-9.454 12.509-13.554 19.439l-116.75-106.35zM820.193 274.133l-101.239 109.99c-4.54-7.813-9.203-14.527-14.34-20.839l100.435-108.579c4.087 7.518 9.136 13.933 15.088 19.378zM740.062 463.256c0 82.938-63.626 151.004-144.728 158.080-4.181 0.391-9.047 0.615-13.965 0.619-3.477 0-6.918-0.124-10.334-0.343-82.832-5.323-148.371-74.179-148.371-158.355 0-29.099 7.839-56.364 21.509-79.811 4.504-7.669 9.114-14.26 14.184-20.463 28.872-35.532 73.262-58.425 123.006-58.425 49.885 0 94.386 23.024 123.479 59.017 4.908 6.022 9.571 12.736 13.705 19.797 13.833 24.045 21.515 51.067 21.515 79.884zM327.828 276.356c-12.628 10.493-28.853 16.808-46.556 16.808-26.463 0-49.63-14.102-62.402-35.2-1.899-3.083-3.708-6.67-5.214-10.41-3.405-8.416-5.281-17.615-5.281-27.251 0-0.013 0-0.025 0-0.038 0-40.258 32.637-72.895 72.897-72.895s72.897 32.637 72.897 72.897c0 13.784-3.829 26.673-10.477 37.666-4.365 7.14-9.634 13.223-15.748 18.328zM869.306 293.164c-18.921 0-36.156-7.211-49.113-19.031-6.007-5.495-11.057-11.91-14.953-19.044-5.7-10.64-8.831-22.364-8.831-34.821 0-33.566 22.694-61.815 53.57-70.287 3.456-0.998 7.561-1.791 11.773-2.223 2.692-0.261 5.108-0.386 7.553-0.386 40.26 0 72.897 32.637 72.897 72.897 0 40.258-32.637 72.895-72.896 72.895zM595.335 751.336c31.421 6.101 55.627 32.373 58.603 64.801 0.204 2.222 0.322 4.468 0.322 6.743 0 1.896-0.095 3.768-0.237 5.627-2.876 37.627-34.295 67.27-72.659 67.27-40.26 0-72.897-32.637-72.897-72.897 0-36.752 27.203-67.137 62.569-72.155 3.1-0.468 6.681-0.738 10.323-0.742 4.785 0 9.453 0.474 13.976 1.353zM713.085 796.659c0-21.472 17.406-38.878 38.878-38.878s38.878 17.406 38.878 38.878-17.406 38.878-38.878 38.878c-14.522 0-27.176-7.968-33.851-19.765-1.922-3.327-3.406-7.189-4.241-11.288-0.515-2.526-0.785-5.144-0.786-7.825zM147.628 312.159c0 21.472-17.407 38.878-38.878 38.878-21.472 0-38.878-17.406-38.878-38.878s17.406-38.878 38.878-38.878c12.106 0 22.918 5.534 30.049 14.21 2.482 3.004 4.554 6.47 6.057 10.225 1.788 4.459 2.772 9.327 2.772 14.425 0 0.006 0 0.013 0 0.019zM818.279 79.332c-21.472 0-38.878-17.406-38.878-38.878s17.406-38.878 38.878-38.878 38.878 17.406 38.878 38.878c0 14.84-8.317 27.733-20.541 34.285-3.317 1.814-7.169 3.198-11.243 3.942-2.297 0.424-4.668 0.648-7.091 0.651z" />
<glyph unicode="&#xe964;" glyph-name="heatmap_1" d="M501.225 897.317l-390.174-220.859-3.818-448.329 386.357-227.471 390.173 220.858 3.818 448.329-386.356 227.472zM712.36 228.998c-36.304-41.536-127.042-46.838-127.042-46.838s-28.307 2.897-56.972 19.879c-53.418-20.446-107.435-24.042-107.435-24.042s-153.353 17.817-171.391 185.297c-18.038 167.479 162.338 323.404 162.338 323.404s71.632 103.687 255.552-54.978c72.11-62.208 87.206-122.317 75.654-176.662 3.762-2.706 6.246-4.56 8.71-6.439 122.313-92.666-3.109-178.085-39.414-219.621zM470.332 291.302c-12.102 98.648 108.913 190.489 108.913 190.489s46.074 58.543 163.819-26.733c11.551 54.345-3.545 114.454-75.654 176.662-183.921 158.665-255.551 54.978-255.551 54.978s-180.376-155.925-162.338-323.404c18.038-167.48 171.391-185.297 171.391-185.297s54.017 3.596 107.435 24.042c-25.983 15.393-52.261 42.359-58.015 89.263zM750.694 449.409c-1.394 1.097-3.878 2.951-6.381 4.78-118.995 86.145-165.068 27.602-165.068 27.602s-121.014-91.841-108.913-190.489c5.754-46.904 32.031-73.87 58.014-89.263 28.665-16.982 56.972-19.879 56.972-19.879s90.738 5.302 127.042 46.838c36.305 41.536 161.727 126.955 38.334 220.411z" />
<glyph unicode="&#xe965;" glyph-name="line_1" d="M959.159 31.781h-895.096v830.094h37.045v-787.166h858.051zM580.658 163.755l-210.972 168.076-211.044-132.616-17.659 37.737 230.991 145.15 208.508-166.113 334.054 270.609 21.225-35.183zM152.112 358.247l-28.68 27.17 236.798 335.639 208.773-255.976 334.517 391.237 26.316-30.213-361.462-422.75-206.129 252.736z" />
<glyph unicode="&#xe966;" glyph-name="line1_1" d="M928.024 451.405l-351.13-254.683-213.914 158.576-214.094-129.275v155.184l225.317 312.316 203.747-253.287 350.074 395.34zM918.762 125.147h-779.137v101.522l225.317 108.398 203.747-145.961 350.073 279.044zM959.159 31.781h-895.096v830.094h37.045v-787.166h858.051zM580.658 163.755l-210.972 168.076-211.044-132.616-17.659 37.737 230.991 145.15 208.508-166.113 334.054 270.609 21.225-35.183zM152.112 358.247l-28.68 27.17 236.798 335.639 208.773-255.976 334.517 391.237 26.316-30.213-361.462-422.75-206.129 252.736z" />
<glyph unicode="&#xe967;" glyph-name="lineStack_1" d="M529.972 405.068l195.11 161.284 192.231-141.279v182.836l-193.856 89.278-197.687-137.787-163.704 93.148-221.387-168.16-0.683-124.15 194.865 94.185zM920.193 422.956l-195.111 143.396-195.11-161.284-195.111 49.355-195.11-94.304v-234.077h780.442zM101.17 75.66v786.28h-37.107v-829.159h896.594v42.879z" />
<glyph unicode="&#xe968;" glyph-name="map_1" d="M854.445 603.116c-4.39-9.779-9.241-19.824-14.472-30.048l84.737-41.39v-474.522l-181.908 92.905v-6.178h-35.873v3.185l-194.989-99.586-192.225 76.217v-1.904h-35.873v4.826l-182.663-72.425v473.208l182.663 102.099v17.337h35.873v-31.513l190.564-165.289 22.458 11.766c-2.65 3.63-9.175 13.755-15.594 23.954l-216.673 191.415-235.164-131.445v-541.435l232.787 92.299 215.856-85.585 213.846 109.217 232.787-118.891v549.939l-106.137 51.844zM319.715 646.84h-35.873v-525.045h35.873v493.532zM706.929 631.412c12.474 9.77 21.844 22.74 26.584 37.516h-26.584v-37.516zM706.929 364.184v-220.301h35.873v270.885c-17.056-24.87-28.85-41.343-40.834-57.667zM653.56 293.428s22.539 28.368 53.369 70.756c7.029 9.25 18.823 25.723 30.423 42.341 39.15 57.054 75.793 114.101 102.621 166.543 5.23 10.224 10.082 20.269 14.472 30.048 15.251 33.974 24.865 64.69 24.865 88.151 0 113.722-101.072 205.912-225.75 205.912s-225.75-92.19-225.75-205.912c0-47.469 39.334-124.624 85.164-198.414 10.588-17.294 17.113-27.419 23.741-37.471 54.98-84.095 116.845-161.954 116.845-161.954zM650.869 769.556c47.554 0 86.103-35.162 86.103-78.537 0-0.005 0-0.012 0-0.018 0-7.887-1.265-15.479-3.604-22.583-4.595-14.266-13.965-27.237-26.439-37.006-15.064-11.798-34.648-18.929-56.060-18.929-47.553 0-86.103 35.162-86.103 78.537 0 43.374 38.549 78.536 86.103 78.536z" />
<glyph unicode="&#xe969;" glyph-name="pie_1" d="M65.946 449.465c0-246.687 199.98-446.667 446.667-446.667s446.667 199.98 446.667 446.667c0 246.687-199.98 446.667-446.667 446.667s-446.667-199.98-446.667-446.667zM512.613 896.132c-246.687 0-446.667-199.979-446.667-446.667h446.667v446.667zM511.802 449.465l392.158 212.339c-75.291 139.078-222.241 233.681-391.347 234.317l-0.811-446.656z" />
<glyph unicode="&#xe96a;" glyph-name="pie1_1" d="M485.179 847.34c-233.873 0-423.464-189.591-423.464-423.464s189.591-423.464 423.464-423.464 423.464 189.591 423.464 423.464-189.591 423.464-423.464 423.464zM485.179 134.677c-159.72 0-289.199 129.479-289.199 289.199s129.479 289.199 289.199 289.199 289.199-129.479 289.199-289.199-129.479-289.199-289.199-289.199zM711.686 423.875h248.512c-0.148 261.822-212.44 474.024-474.296 474.024v-248.51c124.608 0 225.636-100.941 225.784-225.514z" />
<glyph unicode="&#xe96b;" glyph-name="radar_1" d="M772.985 296.399l89.212-52.711 3.343 392.523-87.48-49.619 81.085-117.214zM500.006 725.945v117.711l-140.993-79.809 106.043-53.085zM344.293 755.514l-177.908-100.704 71.979-42.53 44.123 19.169zM857.123 649.492l-206.805 121.759 118.771-171.692zM158.013 558.616l-1.533-180.109 45.767 91.873zM515.712 850.502v-117.734l115.064 49.988zM515.712 40.321l158.87 89.929h-158.87zM163.164 237.816l160.575-94.54-101.571 128.008zM155.398 251.466l56.89 32.269-56.014 70.593zM158.716 641.1l-0.542-63.657 62.399 27.108zM345.863 130.25l38.159-22.466-11.263 22.466zM500.006 39.497v88.701l-99.301-30.236zM723.029 196.106l-24.802-7.552-6.415-48.551 160.874 91.064-86.721 51.239zM852.686 231.067l-160.874-91.064-1.289-9.753h-15.941l-158.87-89.929v-18.047l352.574 199.576zM865.54 636.211l-3.343-392.523 15.628-9.234 3.497 410.709zM515.712 850.502l115.064-67.746 8.906 3.869 10.636-15.374 206.805-121.759 15.766 8.943-357.177 210.292zM155.398 251.466l0.876 102.862-7.274 9.166 7.48 15.013 1.533 180.109-7.721 15.403 7.882 3.424 0.542 63.657-15.628 9.234-3.472-407.82zM166.385 654.81l177.908 100.704 6.26 12.568 8.46-4.235 140.993 79.809v18.048l-349.22-197.678zM500.006 39.497l-99.301 58.465-10.202-3.107-6.481 12.929-38.159 22.466h-11.788l-10.336 13.026-160.575 94.54-15.766-8.943 352.608-207.601zM515.712 40.321v89.929h-8.965l-6.741-2.052v-129.979h15.706v24.055zM500.006 843.656v-117.711l15.706 6.823v163.009h-15.706v-34.073zM862.197 243.688l-89.212 52.711-7.020-14.093 124.31-73.449 8.135 13.434-20.585 12.163zM158.716 641.1l61.857-36.549 17.791 7.729-111.349 65.792-8.136-13.434 24.209-14.304zM857.123 649.492l-88.034-49.933 8.971-12.967 119.124 67.568-7.631 13.727-16.664-9.452zM163.164 237.816l59.004 33.468-9.88 12.451-93.708-53.152 7.631-13.727 21.187 12.017zM372.759 130.25l17.744-35.395 116.244 35.395zM748.478 568.883l-50.251-380.329 24.802 7.552 136.116 273.272-219.463 317.247-174.626-75.863zM282.487 631.449l-132.195-57.43 51.955-103.639zM748.478 568.883l-397.925 199.199-201.553-404.588 185.075-233.244h356.448l1.289 9.753 6.415 48.551z" />
<glyph unicode="&#xe96c;" glyph-name="scatter_1" d="M102.144 130.653v690.449h-36.948v-728.102h892.761v37.653zM145.123 347.399c0-45.724 36.373-82.791 81.241-82.791s81.241 37.067 81.241 82.791c0 45.724-36.373 82.791-81.241 82.791s-81.241-37.067-81.241-82.791zM496.785 571.948c0-31.922 25.393-57.799 56.717-57.799s56.717 25.877 56.717 57.799c0 31.922-25.393 57.799-56.717 57.799s-56.717-25.877-56.717-57.799zM737.424 300.593c0-36.169 28.772-65.49 64.265-65.49s64.265 29.321 64.265 65.49c0 36.169-28.772 65.49-64.265 65.49s-64.265-29.321-64.265-65.49zM124.725 199.008c0-19.012 15.124-34.425 33.781-34.425s33.781 15.413 33.781 34.425c0 19.012-15.124 34.425-33.781 34.425s-33.781-15.413-33.781-34.425zM879.080 467.483c0-9.53 7.581-17.256 16.933-17.256s16.933 7.726 16.933 17.256c0 9.53-7.581 17.256-16.933 17.256s-16.933-7.726-16.933-17.256zM762.198 492.91c0-10.931 8.695-19.792 19.421-19.792s19.421 8.861 19.421 19.792c0 10.931-8.695 19.792-19.421 19.792s-19.421-8.861-19.421-19.792zM337.483 645.26c0-14.090 11.209-25.513 25.036-25.513s25.036 11.423 25.036 25.513c0 14.090-11.209 25.513-25.036 25.513s-25.036-11.423-25.036-25.513zM611.021 419.25c0-13.087 10.41-23.696 23.252-23.696s23.252 10.609 23.252 23.696c0 13.087-10.41 23.696-23.252 23.696s-23.252-10.609-23.252-23.696zM396.030 420.354c0-12.639 10.054-22.885 22.456-22.885s22.456 10.246 22.456 22.885c0 12.639-10.054 22.885-22.456 22.885s-22.456-10.246-22.456-22.885zM314.482 532.581c0-10.139 8.065-18.358 18.014-18.358s18.014 8.219 18.014 18.358c0 10.139-8.065 18.358-18.014 18.358s-18.014-8.219-18.014-18.358zM503.88 316.203c0-9.53 7.581-17.256 16.933-17.256s16.933 7.726 16.933 17.256c0 9.53-7.581 17.256-16.933 17.256s-16.933-7.726-16.933-17.256z" />
<glyph unicode="&#xe96d;" glyph-name="themeRiver_1" d="M427.434 546.63c70.905-70.67 120.955 85.125 216.885 86.731s162.879-88.071 191.86-105.111c28.981-17.040 95.93-52.29 95.93-52.29v-11.076l0.086-0.012-0.086 31.968s-192.49 223.815-288.42 221.647c-95.93-2.168-144.78-191.961-215.684-96.585-137.639 186.416-282.229-51.18-282.229-51.18v-19.583c9.93 8.873 149.018 128.601 281.658-4.509zM932.109 316.952s-21.445-15.488-47.553-39.231c25.92 12.173 48.124 8.197 48.124 8.197l-0.142 52.606-0.429-0.143v-21.429zM527.534 267.162c-67.83 120.183-153.477-98.328-354.302-14.865 156.418-274.153 287.854 152.695 354.872-7.564 79.246-195.087 260.636-128.039 296.783-36.998 2.228 5.641 4.17 9.949 6.267 14.167-9.532-12.606-17.702-24.577-24.173-36.653-36.146-67.458-200.2-62.64-279.447 81.913zM527.534 267.162c79.246-144.552 243.301-149.371 279.448-81.913 6.471 12.077 14.641 24.048 23.685 35.568 16.675 21.241 36.332 40.938 53.888 56.904 26.108 23.743 47.553 39.231 47.553 39.231v21.429c-13.765-4.622-90.15-31.535-122.976-70.134-36.148-42.506-200.202-39.47-279.448 51.615-70.905 79.162-161.273-103.229-382.329-29.35v239.856s144.59 52.626 282.229-34.41c70.905-44.53 120.955 53.639 216.885 54.651s162.879-55.495 191.86-66.232c25.9-9.595 82.117-17.847 93.779-19.493v11.076s-66.949 35.251-95.93 52.29c-28.981 17.040-95.93 106.717-191.86 105.111s-145.98-157.402-216.885-86.731c-132.639 133.11-271.728 13.383-281.658 4.509-0.374-0.335-0.571-0.517-0.571-0.517v-285.066c9.587-5.085 18.923-9.475 28.028-13.259 200.825-83.463 286.473 135.048 354.302 14.865zM101.14 76.389v785.429h-37.077v-828.262h895.854v42.833zM838.329 484.377c-28.981 10.737-95.93 67.244-191.86 66.232s-145.98-99.181-216.885-54.651c-137.639 87.036-282.229 34.41-282.229 34.41v-239.856c221.056-73.88 311.425 108.512 382.329 29.35 79.246-91.084 243.301-94.121 279.448-51.615 32.826 38.599 109.211 65.513 122.976 70.134l0.429 0.143c1.115 0.372 1.722 0.566 1.722 0.566v125.494s-0.734 0.099-2.064 0.287l-0.086 0.012c-11.663 1.647-67.88 9.898-93.78 19.494z" />
<glyph unicode="&#xe96e;" glyph-name="treemap_1" d="M888.6 192.289v305.427h-54.177v-0.902h-295.943v167.708c-8.108-2.187-17.416-3.444-27.019-3.444-0.025 0-0.050 0-0.074 0-9.353 0-18.43 1.198-27.085 3.444v-167.708h-299.554v0.902h-54.177v-306.192c7.83 2.397 16.831 3.777 26.154 3.777 0.022 0 0.044 0 0.066 0 9.744 0 19.137-1.513 27.959-4.31v251.646h299.555v-251.373c8.082 2.561 17.377 4.037 27.016 4.037 0.026 0 0.051 0 0.077 0 0.017 0 0.042 0 0.067 0 9.64 0 18.935-1.476 27.673-4.214l-0.655 251.55h295.943v-252.564c9.119 3.313 19.645 5.228 30.618 5.228 0.029 0 0.057 0 0.086 0 8.106 0 15.974-1.049 23.471-3.012zM538.48 664.522c46.271 12.009 80.438 54.055 80.438 104.083 0 59.385-48.141 107.526-107.526 107.526s-107.526-48.141-107.526-107.526c0-50.028 34.166-92.074 80.438-104.083 8.108-2.187 17.416-3.444 27.019-3.444 0.025 0 0.050 0 0.074 0 9.351 0 18.428 1.197 27.083 3.444zM130.571 191.523c-38.278-11.302-66.216-46.713-66.216-88.654 0-51.049 41.383-92.431 92.431-92.431s92.431 41.383 92.431 92.431c0 41.301-27.090 76.271-64.469 88.121-8.334 2.734-17.926 4.31-27.886 4.31-0.027 0-0.053 0-0.080 0-0.015 0-0.039 0-0.062 0-9.321 0-18.32-1.38-26.803-3.947zM484.303 191.264c-37.83-11.579-65.343-46.772-65.343-88.394 0-51.049 41.383-92.431 92.431-92.431s92.431 41.383 92.431 92.431c0 41.622-27.513 76.815-65.343 88.394-8.082 2.561-17.377 4.037-27.017 4.037-0.025 0-0.051 0-0.076 0-0.017 0-0.042 0-0.067 0-9.639 0-18.934-1.476-27.67-4.214zM888.6 192.289c-7.027 1.913-15.096 3.012-23.422 3.012-0.019 0-0.039 0-0.058 0-0.021 0-0.050 0-0.079 0-10.973 0-21.499-1.915-31.261-5.43-35.313-12.457-61.088-46.716-61.088-87.001 0-51.049 41.383-92.431 92.431-92.431s92.431 41.383 92.431 92.431c0 42.935-29.276 79.030-68.954 89.419z" />
<glyph unicode="&#xe96f;" glyph-name="pencil" d="M864 960c88.364 0 160-71.634 160-160 0-36.020-11.91-69.258-32-96l-64-64-224 224 64 64c26.742 20.090 59.978 32 96 32zM64 224l-64-288 288 64 592 592-224 224-592-592zM715.578 596.422l-448-448-55.156 55.156 448 448 55.156-55.156z" />
<glyph unicode="&#xe970;" glyph-name="eyedropper" d="M986.51 922.51c-49.988 49.986-131.032 49.986-181.020 0l-172.118-172.118-121.372 121.372-135.764-135.764 106.426-106.426-472.118-472.118c-8.048-8.048-11.468-18.958-10.3-29.456h-0.244v-160c0-17.674 14.328-32 32-32h160c0 0 2.664 0 4 0 9.212 0 18.426 3.516 25.456 10.544l472.118 472.118 106.426-106.426 135.764 135.764-121.372 121.372 172.118 172.118c49.986 49.988 49.986 131.032 0 181.020zM173.090 0h-109.090v109.090l469.574 469.572 109.088-109.088-469.572-469.574z" />
<glyph unicode="&#xe971;" glyph-name="file-text" d="M864 960h-768c-52.8 0-96-43.2-96-96v-832c0-52.8 43.2-96 96-96h768c52.8 0 96 43.2 96 96v832c0 52.8-43.2 96-96 96zM832 64h-704v768h704v-768zM256 512h448v-64h-448zM256 384h448v-64h-448zM256 256h448v-64h-448zM256 640h448v-64h-448z" />
<glyph unicode="&#xe972;" glyph-name="file-empty" d="M917.806 730.924c-22.212 30.292-53.174 65.7-87.178 99.704s-69.412 64.964-99.704 87.178c-51.574 37.82-76.592 42.194-90.924 42.194h-496c-44.112 0-80-35.888-80-80v-864c0-44.112 35.888-80 80-80h736c44.112 0 80 35.888 80 80v624c0 14.332-4.372 39.35-42.194 90.924zM785.374 785.374c30.7-30.7 54.8-58.398 72.58-81.374h-153.954v153.946c22.984-17.78 50.678-41.878 81.374-72.572zM896 16c0-8.672-7.328-16-16-16h-736c-8.672 0-16 7.328-16 16v864c0 8.672 7.328 16 16 16 0 0 495.956 0.002 496 0v-224c0-17.672 14.326-32 32-32h224v-624z" />
<glyph unicode="&#xe973;" glyph-name="files-empty" d="M917.806 602.924c-22.21 30.292-53.174 65.7-87.178 99.704s-69.412 64.964-99.704 87.178c-51.574 37.82-76.592 42.194-90.924 42.194h-368c-44.114 0-80-35.888-80-80v-736c0-44.112 35.886-80 80-80h608c44.112 0 80 35.888 80 80v496c0 14.332-4.372 39.35-42.194 90.924zM785.374 657.374c30.7-30.7 54.8-58.398 72.58-81.374h-153.954v153.946c22.982-17.78 50.678-41.878 81.374-72.572v0zM896 16c0-8.672-7.328-16-16-16h-608c-8.672 0-16 7.328-16 16v736c0 8.672 7.328 16 16 16 0 0 367.956 0.002 368 0v-224c0-17.672 14.324-32 32-32h224v-496zM602.924 917.804c-51.574 37.822-76.592 42.196-90.924 42.196h-368c-44.112 0-80-35.888-80-80v-736c0-38.632 27.528-70.958 64-78.39v814.39c0 8.672 7.328 16 16 16h486.876c-9.646 7.92-19.028 15.26-27.952 21.804z" />
<glyph unicode="&#xe974;" glyph-name="file-text2" d="M917.806 730.924c-22.212 30.292-53.174 65.7-87.178 99.704s-69.412 64.964-99.704 87.178c-51.574 37.82-76.592 42.194-90.924 42.194h-496c-44.112 0-80-35.888-80-80v-864c0-44.112 35.888-80 80-80h736c44.112 0 80 35.888 80 80v624c0 14.332-4.372 39.35-42.194 90.924zM785.374 785.374c30.7-30.7 54.8-58.398 72.58-81.374h-153.954v153.946c22.984-17.78 50.678-41.878 81.374-72.572zM896 16c0-8.672-7.328-16-16-16h-736c-8.672 0-16 7.328-16 16v864c0 8.672 7.328 16 16 16 0 0 495.956 0.002 496 0v-224c0-17.672 14.326-32 32-32h224v-624zM736 128h-448c-17.672 0-32 14.326-32 32s14.328 32 32 32h448c17.674 0 32-14.326 32-32s-14.326-32-32-32zM736 256h-448c-17.672 0-32 14.326-32 32s14.328 32 32 32h448c17.674 0 32-14.326 32-32s-14.326-32-32-32zM736 384h-448c-17.672 0-32 14.326-32 32s14.328 32 32 32h448c17.674 0 32-14.326 32-32s-14.326-32-32-32z" />
<glyph unicode="&#xe975;" glyph-name="folder-open" d="M832 0l192 512h-832l-192-512zM128 576l-128-576v832h288l128-128h416v-128z" />
<glyph unicode="&#xe976;" glyph-name="database" d="M512 960c-282.77 0-512-71.634-512-160v-128c0-88.366 229.23-160 512-160s512 71.634 512 160v128c0 88.366-229.23 160-512 160zM512 416c-282.77 0-512 71.634-512 160v-192c0-88.366 229.23-160 512-160s512 71.634 512 160v192c0-88.366-229.23-160-512-160zM512 128c-282.77 0-512 71.634-512 160v-192c0-88.366 229.23-160 512-160s512 71.634 512 160v192c0-88.366-229.23-160-512-160z" />
<glyph unicode="&#xe97c;" glyph-name="spinner3" d="M512 656.904c-32.964 0-59.686 26.724-59.686 59.686v179.060c0 32.964 26.722 59.686 59.686 59.686 32.962 0 59.688-26.722 59.688-59.686v-179.060c0-32.964-26.726-59.686-59.688-59.686zM512-36.956c-20.602 0-37.304 16.702-37.304 37.304v179.060c0 20.602 16.702 37.304 37.304 37.304 20.604 0 37.304-16.704 37.304-37.304v-179.060c0-20.602-16.7-37.304-37.304-37.304zM377.756 624.64c-19.34 0-38.146 10.034-48.512 27.988l-89.53 155.070c-15.452 26.764-6.282 60.986 20.482 76.438 26.762 15.45 60.986 6.284 76.438-20.482l89.53-155.072c15.452-26.764 6.282-60.986-20.482-76.438-8.81-5.084-18.432-7.504-27.926-7.504zM735.856 26.744c-11.602 0-22.886 6.022-29.108 16.792l-89.53 155.070c-9.27 16.056-3.77 36.592 12.29 45.864 16.056 9.264 36.59 3.77 45.864-12.292l89.532-155.068c9.27-16.058 3.768-36.592-12.292-45.864-5.286-3.048-11.060-4.502-16.756-4.502zM279.344 530.060c-8.86 0-17.838 2.256-26.064 7.006l-155.072 89.53c-24.978 14.422-33.538 46.362-19.116 71.342 14.42 24.978 46.364 33.538 71.342 19.116l155.070-89.53c24.98-14.422 33.538-46.362 19.116-71.34-9.668-16.756-27.226-26.124-45.276-26.124zM899.648 194.326c-5.064 0-10.196 1.29-14.894 4.004l-155.068 89.53c-14.274 8.24-19.164 26.494-10.924 40.768 8.242 14.276 26.496 19.166 40.766 10.924l155.070-89.532c14.274-8.24 19.164-26.492 10.924-40.766-5.53-9.574-15.562-14.928-25.874-14.928zM243.41 399.504h-179.060c-26.784 0-48.496 21.712-48.496 48.496s21.712 48.496 48.496 48.496h179.060c26.784 0 48.496-21.712 48.496-48.496s-21.712-48.496-48.496-48.496zM959.65 418.156c-0.002 0 0 0 0 0h-179.060c-16.482 0.002-29.844 13.364-29.844 29.844s13.364 29.844 29.844 29.844c0.002 0 0 0 0 0h179.060c16.482 0 29.844-13.362 29.844-29.844 0-16.48-13.364-29.844-29.844-29.844zM124.366 179.402c-15.472 0-30.518 8.028-38.81 22.39-12.362 21.41-5.026 48.79 16.384 61.148l155.072 89.532c21.41 12.368 48.79 5.028 61.15-16.384 12.362-21.412 5.026-48.79-16.384-61.15l-155.072-89.53c-7.050-4.070-14.748-6.006-22.34-6.006zM744.632 552.448c-10.314 0-20.346 5.352-25.874 14.926-8.24 14.274-3.35 32.526 10.924 40.768l155.070 89.528c14.272 8.236 32.526 3.352 40.768-10.922 8.24-14.274 3.35-32.526-10.924-40.768l-155.070-89.528c-4.7-2.714-9.83-4.004-14.894-4.004zM288.136 19.284c-6.962 0-14.016 1.774-20.48 5.504-19.626 11.332-26.35 36.428-15.020 56.054l89.53 155.070c11.33 19.628 36.426 26.352 56.054 15.022 19.626-11.332 26.35-36.43 15.020-56.054l-89.53-155.072c-7.598-13.166-21.392-20.524-35.574-20.524zM646.266 650.758c-5.062 0-10.196 1.29-14.894 4.002-14.274 8.242-19.164 26.494-10.924 40.766l89.534 155.070c8.24 14.274 26.492 19.166 40.766 10.922 14.274-8.242 19.164-26.494 10.924-40.766l-89.532-155.070c-5.53-9.57-15.56-14.924-25.874-14.924z" />
<glyph unicode="&#xe986;" glyph-name="search" d="M992.262 88.604l-242.552 206.294c-25.074 22.566-51.89 32.926-73.552 31.926 57.256 67.068 91.842 154.078 91.842 249.176 0 212.078-171.922 384-384 384-212.076 0-384-171.922-384-384s171.922-384 384-384c95.098 0 182.108 34.586 249.176 91.844-1-21.662 9.36-48.478 31.926-73.552l206.294-242.552c35.322-39.246 93.022-42.554 128.22-7.356s31.892 92.898-7.354 128.22zM384 320c-141.384 0-256 114.616-256 256s114.616 256 256 256 256-114.616 256-256-114.614-256-256-256z" />
<glyph unicode="&#xe98b;" glyph-name="enlarge2" d="M1024 960v-416l-160 160-192-192-96 96 192 192-160 160zM448 288l-192-192 160-160h-416v416l160-160 192 192z" />
<glyph unicode="&#xe98c;" glyph-name="shrink2" d="M448 384v-416l-160 160-192-192-96 96 192 192-160 160zM1024 864l-192-192 160-160h-416v416l160-160 192 192z" />
<glyph unicode="&#xe99d;" glyph-name="stats-bars2" d="M288 576h-192c-17.6 0-32-14.4-32-32v-576c0-17.6 14.4-32 32-32h192c17.6 0 32 14.4 32 32v576c0 17.6-14.4 32-32 32zM288 0h-192v256h192v-256zM608 704h-192c-17.6 0-32-14.4-32-32v-704c0-17.6 14.4-32 32-32h192c17.6 0 32 14.4 32 32v704c0 17.6-14.4 32-32 32zM608 0h-192v320h192v-320zM928 832h-192c-17.6 0-32-14.4-32-32v-832c0-17.6 14.4-32 32-32h192c17.6 0 32 14.4 32 32v832c0 17.6-14.4 32-32 32zM928 0h-192v384h192v-384z" />
<glyph unicode="&#xe9ac;" glyph-name="bin" d="M128 640v-640c0-35.2 28.8-64 64-64h576c35.2 0 64 28.8 64 64v640h-704zM320 64h-64v448h64v-448zM448 64h-64v448h64v-448zM576 64h-64v448h64v-448zM704 64h-64v448h64v-448zM848 832h-208v80c0 26.4-21.6 48-48 48h-224c-26.4 0-48-21.6-48-48v-80h-208c-26.4 0-48-21.6-48-48v-80h832v80c0 26.4-21.6 48-48 48zM576 832h-192v63.198h192v-63.198z" />
<glyph unicode="&#xe9bd;" glyph-name="menu" d="M64 768h896v-192h-896zM64 512h896v-192h-896zM64 256h896v-192h-896z" />
<glyph unicode="&#xea0a;" glyph-name="plus" d="M992 576h-352v352c0 17.672-14.328 32-32 32h-192c-17.672 0-32-14.328-32-32v-352h-352c-17.672 0-32-14.328-32-32v-192c0-17.672 14.328-32 32-32h352v-352c0-17.672 14.328-32 32-32h192c17.672 0 32 14.328 32 32v352h352c17.672 0 32 14.328 32 32v192c0 17.672-14.328 32-32 32z" />
<glyph unicode="&#xea0b;" glyph-name="minus" d="M0 544v-192c0-17.672 14.328-32 32-32h960c17.672 0 32 14.328 32 32v192c0 17.672-14.328 32-32 32h-960c-17.672 0-32-14.328-32-32z" />
<glyph unicode="&#xea1c;" glyph-name="play3" d="M192 832l640-384-640-384z" />
<glyph unicode="&#xea25;" glyph-name="eject" d="M0 192h1024v-128h-1024zM512 832l512-512h-1024z" />
<glyph unicode="&#xea2e;" glyph-name="loop2" d="M889.68 793.68c-93.608 102.216-228.154 166.32-377.68 166.32-282.77 0-512-229.23-512-512h96c0 229.75 186.25 416 416 416 123.020 0 233.542-53.418 309.696-138.306l-149.696-149.694h352v352l-134.32-134.32zM928 448c0-229.75-186.25-416-416-416-123.020 0-233.542 53.418-309.694 138.306l149.694 149.694h-352v-352l134.32 134.32c93.608-102.216 228.154-166.32 377.68-166.32 282.77 0 512 229.23 512 512h-96z" />
<glyph unicode="&#xea50;" glyph-name="ctrl" d="M736.014 512c-8.908 0-17.77 3.698-24.096 10.928l-199.918 228.478-199.918-228.478c-11.636-13.3-31.856-14.65-45.154-3.010-13.3 11.638-14.648 31.854-3.010 45.154l224 256c6.076 6.944 14.854 10.928 24.082 10.928s18.006-3.984 24.082-10.928l224-256c11.638-13.3 10.292-33.516-3.010-45.154-6.070-5.312-13.582-7.918-21.058-7.918z" />
</font>
</defs>
</svg>
